<svg width="125" height="49" viewBox="0 0 125 49" fill="none" xmlns="http://www.w3.org/2000/svg">
<mask id="mask0_123_1513" style="mask-type:luminance" maskUnits="userSpaceOnUse" x="0" y="0" width="125" height="49">
<path d="M125 0H0V48.0156H125V0Z" fill="white"/>
</mask>
<g mask="url(#mask0_123_1513)">
<path d="M8.84375 10.2656C11.4219 10.2656 12.75 11.9688 13.0625 14L17.2812 12.9063C16.3906 9.0625 13.4687 6.45312 8.78125 6.45312C4.09375 6.45312 0 10.125 0 15.375C0 20.625 3.875 24.2813 8.76562 24.2813C13.6562 24.2813 16.4531 21.6563 17.2656 17.8281L13.0469 16.7812C12.6094 18.9844 11.4219 20.4844 8.82812 20.4844C6.07812 20.4844 4.26563 18.4375 4.26563 15.3906C4.26563 12.3438 6.25 10.2656 8.84375 10.2656Z" fill="white"/>
<path d="M37.9531 43.8594H37.5469L34.8906 30.6719H28.9687L26.3125 43.8594H25.9062L23.9062 30.6719H19.625L22.9687 47.5313H29.0937L31.75 34.3438H32.1562L34.8125 47.5313H40.9375L44.2656 30.6719H39.9844L37.9531 43.8594Z" fill="white"/>
<path d="M53.9688 30.1875C49.4844 30.1875 47.0313 32.875 45.7031 34.8125L49.1719 36.9219C50.0625 35.0156 51.4219 33.6562 53.7969 33.6562C56.1719 33.6562 57.3281 35.0156 57.3281 36.5781V37.125L50.875 37.8438C47.6406 38.1875 45.2969 40.0469 45.2969 42.7344C45.2969 45.9688 47.8125 48 51.625 48C55.1875 48 56.3906 46.2656 56.9219 45.1406H57.3906V47.5156H61.6094V36.875C61.625 32.8125 58.4531 30.1875 53.9688 30.1875ZM57.3438 40.3906C57.3438 42.7031 55.6719 44.4688 52.6875 44.4688C50.7813 44.4688 49.7969 43.6563 49.7969 42.5C49.7969 41.5156 50.5781 40.7969 52.1719 40.5937L57.3438 39.9844V40.3906Z" fill="white"/>
<path d="M83.3438 30.3906C80.25 30.3906 78.6875 31.8125 78 33.375H77.5312V30.6563L73.3125 32.9219V47.5156H77.5937V38.8125C77.5937 35.8281 79.0625 34.125 81.8125 34.125C84.2656 34.125 85.625 35.5156 85.625 37.8594V47.5156H89.9063V37.4531C89.9063 33.0781 87.0938 30.3906 83.3438 30.3906Z" fill="white"/>
<path d="M105.484 39.375C105.484 42.375 104.016 44.0625 101.266 44.0625C98.8125 44.0625 97.4531 42.6719 97.4531 40.3281V30.6719L93.1719 32.9375V40.7344C93.1719 45.125 96 47.8125 99.7344 47.8125C102.828 47.8125 104.391 46.3906 105.078 44.8281H105.547V47.5469H109.766V30.6719H105.484V39.375Z" fill="white"/>
<path d="M125 34.2656V30.6563H120.375V23.1562L116.094 25.4375V30.6719H111.812V34.2813H116.094V44.2813C116.094 46.1875 117.516 47.5469 119.422 47.5469H124.953V43.9375H121.328C120.719 43.9375 120.375 43.5938 120.375 42.9219V34.2813H125V34.2656Z" fill="white"/>
<path d="M65.2188 47.5313H69.5V24.4219L65.2188 26.6875V47.5313Z" fill="white"/>
<path d="M69.5156 19.6563L69.4531 21.9219V0H65.1563V9.3125H64.75C63.8594 7.89063 62.375 6.45313 59.375 6.45313C55.1563 6.45313 51.625 10.1875 51.625 15.3594C51.625 20.5313 55.1563 24.2656 59.375 24.2656C62.375 24.2656 63.8594 22.8438 64.75 21.4063H65.2188V21.9063V24.4219L69.5 22.1563V19.6563H69.5156ZM60.5312 20.4688C57.9531 20.4688 55.9062 18.625 55.9062 15.375C55.9062 12.1094 57.9531 10.2813 60.5312 10.2813C63.1094 10.2813 65.1563 12.1875 65.1563 15.375C65.1563 18.5625 63.1875 20.4688 60.5312 20.4688Z" fill="white"/>
<path d="M80.9062 24.2813C85.4219 24.2813 87.4062 21.9063 88.5625 20.1406L85.0625 18.0938C84.4844 19.2813 83.2187 20.6094 80.8437 20.6094C78.4687 20.6094 76.7969 18.875 76.625 16.5625H88.9062V14.9688C88.9062 9.90625 85.6094 6.46875 80.7187 6.46875C75.8281 6.46875 72.25 10.1406 72.25 15.2344C72.2344 20.3281 75.875 24.2813 80.9062 24.2813ZM80.6719 10.125C82.875 10.125 84.3125 11.4844 84.5469 13.6875H76.6562C76.9219 11.5625 78.25 10.125 80.6719 10.125Z" fill="white"/>
<path d="M39.5156 6.34375H29.5156C24.7344 6.34375 20.8438 10.2188 20.8438 15.0156V15.7188C20.8438 20.5 24.7187 24.3906 29.5156 24.3906H39.5156C44.2969 24.3906 48.1875 20.5156 48.1875 15.7188V15.0156C48.1875 10.2188 44.2969 6.34375 39.5156 6.34375Z" fill="url(#paint0_linear_123_1513)"/>
<path d="M40.6094 16.25C40.625 17.0781 40.5625 17.9063 40.4688 18.7344C40.375 19.5938 40.25 20.4531 40.1406 21.3125C40.1094 21.5781 40.0938 21.8438 40.0313 22.1094C39.9844 22.3438 39.8906 22.5781 39.7969 22.7969C39.7188 23 39.4844 23.0469 39.3438 22.8906C39.1094 22.625 38.7969 22.4531 38.5156 22.2344C38.1719 21.9688 37.7813 21.7813 37.3906 21.6094C37.0156 21.4375 36.625 21.2969 36.25 21.1094C34.9844 20.5 34.0781 19.5781 33.4844 18.3125C33.2344 17.7813 33.0469 17.2344 33 16.6406C33 16.6094 33 16.5938 33 16.5625C32.9844 16.3125 32.9844 16.0469 32.9688 15.7969C32.9531 15.3281 33.0625 14.8906 33.1563 14.4375C33.3594 13.5781 33.6719 12.75 34.1406 11.9844C34.6875 11.0781 35.4063 10.3594 36.375 9.90627C36.8125 9.70315 37.2656 9.56252 37.7344 9.43752C38.25 9.2969 38.7031 9.03127 39.0625 8.65627C39.3281 8.39065 39.4844 8.43752 39.625 8.78127C39.8438 9.37502 39.9688 10.0156 40.0625 10.6406C40.1875 11.4219 40.3125 12.2031 40.4219 12.9844C40.5 13.5625 40.5313 14.1406 40.5625 14.7188C40.5781 15.2188 40.5938 15.7344 40.6094 16.25Z" fill="white"/>
<path d="M40.125 9.04688C40.1563 9.01563 40.1875 9 40.2031 8.96875C40.2188 8.96875 40.2344 8.96875 40.25 8.98437C40.625 9.375 41.1094 9.5625 41.625 9.70312C42.1563 9.85937 42.6875 10.0313 43.1719 10.3281C43.9062 10.7813 44.4688 11.4062 44.8438 12.1875C45.2969 13.1094 45.4844 14.0781 45.5156 15.0938C45.5469 16.1563 45.4688 17.2188 45.1719 18.25C45.0625 18.6563 44.9063 19.0625 44.7031 19.4375C44.5313 19.75 44.2813 20.0469 44.0156 20.3125C43.5156 20.8125 42.9063 21.2031 42.2656 21.5313C42.0156 21.6563 41.7656 21.7813 41.5156 21.9219C41.2031 22.0938 40.9063 22.2813 40.6094 22.4688C40.5313 22.5156 40.4531 22.5781 40.375 22.4844C40.4844 22.0625 40.5938 21.6406 40.6875 21.2344C40.8906 20.2812 41.0625 19.3281 41.1563 18.3594C41.25 17.3594 41.2656 16.3438 41.2344 15.3437C41.2188 14.8125 41.1406 14.2656 41.0938 13.7344C41.0313 13.125 40.9531 12.5156 40.875 11.9219C40.7813 11.2188 40.6406 10.5312 40.3906 9.85937C40.2969 9.57812 40.2188 9.3125 40.125 9.04688Z" fill="white"/>
</g>
<defs>
<linearGradient id="paint0_linear_123_1513" x1="21.4255" y1="18.8753" x2="47.6912" y2="11.8367" gradientUnits="userSpaceOnUse">
<stop stop-color="#405CE7"/>
<stop offset="0.54" stop-color="#A02984"/>
<stop offset="1" stop-color="#EF0035"/>
</linearGradient>
</defs>
</svg>
