<svg width="24" height="24" viewBox="0 0 24 24" fill="none" xmlns="http://www.w3.org/2000/svg">
<path d="M23 0H1C0.45 0 0 0.45 0 1V23C0 23.55 0.45 24 1 24H23C23.55 24 24 23.55 24 23V1C24 0.45 23.55 0 23 0ZM7.1 20.45H3.55V9H7.1V20.45ZM5.35 7.45C4.2 7.45 3.3 6.55 3.3 5.4C3.3 4.25 4.2 3.35 5.35 3.35C6.5 3.35 7.4 4.25 7.4 5.4C7.4 6.5 6.5 7.45 5.35 7.45ZM20.45 20.45H16.9V14.9C16.9 13.55 16.9 11.85 15.05 11.85C13.2 11.85 12.9 13.3 12.9 14.8V20.45H9.35V9H12.75V10.55H12.8C13.25 9.65 14.45 8.7 16.15 8.7C19.75 8.7 20.4 11.05 20.4 14.15V20.45H20.45Z" fill="#AAAAAA"/>
</svg>
